<?xml version="1.0" encoding="UTF-8"?>
<svg version="1.1" xmlns="http://www.w3.org/2000/svg" width="512" height="512">
<path d="M0 0 C147.84 0 295.68 0 448 0 C448 105.6 448 211.2 448 320 C300.16 320 152.32 320 0 320 C0 214.4 0 108.8 0 0 Z " fill="#E92B2A" transform="translate(32,96)"/>
<path d="M0 0 C0.66 0 1.32 0 2 0 C4.27922661 6.94613117 6.55714419 13.89269024 8.83347702 20.83977032 C9.89096856 24.06696804 10.948879 27.29402707 12.0078125 30.52075195 C13.23028142 34.24654314 14.45121489 37.97283462 15.671875 41.69921875 C16.04495789 42.8351799 16.41804077 43.97114105 16.8024292 45.14152527 C18.65428108 50.79965945 20.48223231 56.46523375 22.27050781 62.14379883 C22.76880096 63.72140739 22.76880096 63.72140739 23.27716064 65.33088684 C24 68 24 68 24 71 C48.75 71 73.5 71 99 71 C93.38095238 76.61904762 93.38095238 76.61904762 90.4609375 78.62109375 C89.80810791 79.07411865 89.15527832 79.52714355 88.48266602 79.99389648 C87.78713623 80.47028564 87.09160645 80.9466748 86.375 81.4375 C80.03345592 85.84585699 73.76753273 90.33892752 67.5625 94.9375 C58.42899062 101.70050907 49.2266053 108.36474216 40 115 C41.98098941 122.54793011 44.22499244 129.96736032 46.6875 137.37109375 C47.39330068 139.51364832 48.09902759 141.65622719 48.8046875 143.79882812 C49.90251549 147.12100866 51.00173076 150.4427218 52.10253906 153.76391602 C53.17621441 157.00677057 54.2445906 160.25133662 55.3125 163.49609375 C55.63758545 164.47146591 55.9626709 165.44683807 56.29760742 166.45176697 C58.52527986 173.23050683 60.3536477 180.05781434 62 187 C56.11648691 183.11960603 50.32671907 179.14287788 44.625 175 C43.85897461 174.44530029 43.09294922 173.89060059 42.30371094 173.3190918 C37.40766769 169.76732352 32.53149025 166.18920924 27.66601562 162.59570312 C26.0647494 161.41384697 24.46190073 160.23413164 22.85742188 159.05664062 C19.16588736 156.34706043 15.49388573 153.62012762 11.8671875 150.82421875 C10.61986227 149.88271895 9.37247077 148.94130695 8.125 148 C7.57231445 147.56018799 7.01962891 147.12037598 6.45019531 146.66723633 C4.73735304 145.32684444 4.73735304 145.32684444 2 144 C-2.76810821 144.8011038 -6.68282025 148.5908259 -10.4375 151.5 C-11.87532367 152.59633644 -13.31414269 153.69136862 -14.75390625 154.78515625 C-15.47078613 155.33059082 -16.18766602 155.87602539 -16.92626953 156.43798828 C-19.87240356 158.65712714 -22.86553469 160.80539126 -25.875 162.9375 C-29.78270737 165.7074917 -33.68147612 168.48803376 -37.55859375 171.30078125 C-38.3470166 171.87256104 -39.13543945 172.44434082 -39.94775391 173.03344727 C-41.47311915 174.14069928 -42.99760044 175.24917057 -44.52099609 176.35913086 C-49.59576262 180.03957279 -54.76535779 183.55143893 -60 187 C-57.96136391 178.24408421 -55.38398314 169.76273631 -52.515625 161.24609375 C-52.09088981 159.97027091 -51.66680998 158.69422973 -51.24334717 157.41798401 C-49.46389747 152.05804664 -47.67467429 146.70141216 -45.87744141 141.34741211 C-44.77063835 138.04873831 -43.67251709 134.74727942 -42.57976532 131.44392586 C-41.96204287 129.58542438 -41.33439301 127.73023207 -40.706604 125.87510681 C-40.15042389 124.19173973 -40.15042389 124.19173973 -39.58300781 122.47436523 C-39.08695038 120.99310402 -39.08695038 120.99310402 -38.58087158 119.48191833 C-37.74555155 116.88985124 -37.74555155 116.88985124 -39 114 C-40.50074116 112.60151262 -40.50074116 112.60151262 -42.40234375 111.3203125 C-43.11841797 110.81048828 -43.83449219 110.30066406 -44.57226562 109.77539062 C-45.35279297 109.23076172 -46.13332031 108.68613281 -46.9375 108.125 C-48.59258868 106.95071921 -50.24753266 105.77623445 -51.90234375 104.6015625 C-52.7516748 104.0024707 -53.60100586 103.40337891 -54.47607422 102.78613281 C-58.33828749 100.05292017 -62.16865567 97.27623215 -66 94.5 C-70.6550237 91.13173916 -75.31557096 87.77183051 -79.9921875 84.43359375 C-80.80945313 83.84835938 -81.62671875 83.263125 -82.46875 82.66015625 C-84.03168604 81.54123613 -85.59667911 80.42518172 -87.1640625 79.3125 C-87.87046875 78.80589844 -88.576875 78.29929687 -89.3046875 77.77734375 C-89.92327637 77.33640381 -90.54186523 76.89546387 -91.17919922 76.44116211 C-93.26177745 74.79280339 -95.12194003 72.87805997 -97 71 C-72.25 71 -47.5 71 -22 71 C-21.34 68.03 -20.68 65.06 -20 62 C-19.3459669 59.75222912 -18.6594417 57.51359561 -17.93701172 55.28686523 C-17.33661575 53.42595497 -17.33661575 53.42595497 -16.72409058 51.52745056 C-16.29271211 50.20446919 -15.86124235 48.88151759 -15.4296875 47.55859375 C-14.98378153 46.18151793 -14.53824119 44.80432366 -14.0930481 43.42701721 C-12.92947534 39.83055011 -11.76099497 36.23569671 -10.59143066 32.64117432 C-9.39518317 28.96162791 -8.20365941 25.28055269 -7.01171875 21.59960938 C-4.67905902 14.39824838 -2.34120445 7.1985882 0 0 Z " fill="#FEE50E" transform="translate(255,153)"/>
</svg>
